<svg version="1.1" id="Layer_1" xmlns="http://www.w3.org/2000/svg" xmlns:xlink="http://www.w3.org/1999/xlink" x="0px" y="0px"
	 width="100%" viewBox="0 0 1024 1024" enable-background="new 0 0 1024 1024" xml:space="preserve">
<path fill="#000000" opacity="1.000000" stroke="none" 
	d="
M413.900330,633.097412 
	C415.393738,625.962585 418.623505,619.583923 416.455505,612.261963 
	C413.986847,603.924805 409.521515,597.300232 402.505798,592.176941 
	C392.013763,584.515076 381.530396,576.834717 372.970551,566.878540 
	C357.356903,548.717712 350.022278,527.445740 348.564392,503.786102 
	C348.010437,494.796356 347.688690,485.837189 348.274933,476.851410 
	C348.372375,475.357666 348.363190,473.835754 348.663849,472.380676 
	C349.400513,468.815338 352.456573,467.488434 354.804565,470.073273 
	C368.241364,484.865570 385.309631,495.976349 397.182617,512.373108 
	C406.910065,525.806885 412.594360,540.694336 414.210175,557.087463 
	C415.237061,567.505920 415.627045,577.987183 416.306641,588.440002 
	C416.656616,593.823486 417.940430,598.930603 420.755493,603.696350 
	C422.866150,602.984863 422.623291,601.018127 423.054016,599.589783 
	C432.335297,568.808655 442.421722,538.311340 454.518890,508.500092 
	C459.023010,497.400574 456.649872,487.105896 449.302979,478.169403 
	C444.670654,472.534790 439.011810,467.747070 433.843323,462.549713 
	C412.096313,440.681458 400.541901,414.562317 399.403961,383.514374 
	C398.846588,368.306702 399.722137,353.248291 400.617798,338.136993 
	C400.718567,336.437195 400.739655,334.681000 402.679779,333.989166 
	C404.689453,333.272614 406.222137,334.228607 407.524200,335.695129 
	C420.231995,350.007568 434.185364,363.261536 444.563385,379.549652 
	C455.110748,396.103577 460.394989,414.270752 461.238892,433.778961 
	C461.765533,445.953369 460.663422,458.065613 459.490509,470.170288 
	C458.908997,476.171692 459.312286,482.059540 462.145081,487.664917 
	C464.018402,486.708282 464.328583,484.997620 464.963989,483.522034 
	C476.253326,457.305084 489.851379,432.289215 504.668274,407.937164 
	C512.908630,394.393890 511.534943,381.498932 503.612274,368.454468 
	C496.793945,357.228271 489.856323,346.106018 485.065155,333.707611 
	C477.864197,315.073334 477.545410,296.462860 482.910461,277.438141 
	C486.506836,264.685242 492.243835,252.873535 498.164917,241.120361 
	C499.006592,239.449600 500.011536,237.879913 502.204987,237.888565 
	C503.938446,237.895416 505.034668,238.942505 505.562775,240.435669 
	C511.228210,256.454559 520.057495,271.157166 524.899475,287.536194 
	C530.368408,306.036041 529.043396,324.388123 524.455505,342.745728 
	C521.954346,352.753754 519.227173,362.705963 516.790527,372.729218 
	C515.715393,377.152100 515.938171,381.650848 517.576660,386.898895 
	C521.442505,381.338623 525.022095,376.277252 528.511719,371.154572 
	C539.406555,355.161102 551.200867,339.813965 563.911865,325.274780 
	C572.796997,315.111694 577.470276,303.448547 580.950378,290.778412 
	C585.995972,272.409027 592.448792,254.556519 604.157349,239.145889 
	C618.185913,220.681778 637.158691,208.906113 657.966187,199.672119 
	C663.900574,197.038528 669.836304,194.378067 675.909424,192.097458 
	C679.952515,190.579178 682.489807,192.350266 681.530151,196.005539 
	C676.131042,216.570435 672.268127,237.649780 661.610107,256.500519 
	C651.637085,274.139648 637.376892,287.291656 619.613037,296.725494 
	C612.999512,300.237732 606.261902,303.591461 599.341248,306.434021 
	C586.569458,311.679779 575.962463,319.401459 567.440186,330.424774 
	C552.461731,349.798859 537.437378,369.116913 524.388794,389.877838 
	C523.791260,390.828583 522.880127,391.714935 523.281921,393.694305 
	C528.543091,392.554352 533.204163,390.303772 537.410950,387.067688 
	C546.654968,379.956757 555.934204,372.938690 566.064697,367.060699 
	C588.529846,354.025940 612.875183,350.312439 638.321533,352.225037 
	C648.433167,352.985046 658.485413,354.532379 668.566284,355.707825 
	C670.418457,355.923798 672.335999,356.080261 673.061401,358.188263 
	C673.756226,360.207733 672.680725,361.715729 671.319580,363.059265 
	C651.140808,382.976990 629.524597,400.443359 600.176880,404.685944 
	C585.318848,406.833832 570.646545,405.300598 556.031921,402.466522 
	C549.342285,401.169250 542.741455,399.227661 535.872131,399.103027 
	C524.707031,398.900391 515.704468,402.212097 509.510925,412.635376 
	C494.593292,437.740570 481.206635,463.590027 469.497040,490.324951 
	C469.188019,491.030518 469.061859,491.816162 468.738159,492.961700 
	C473.140717,492.027527 476.609680,490.349304 479.822174,487.862915 
	C493.657623,477.154724 507.423676,466.385773 524.155029,460.230743 
	C545.509766,452.374969 567.461792,451.892517 589.706909,454.168427 
	C594.343323,454.642792 599.005859,454.990540 603.594116,455.765472 
	C607.352966,456.400330 608.446533,459.144653 605.843201,461.805817 
	C591.951172,476.006714 577.835388,489.945892 558.804932,497.408691 
	C543.050903,503.586670 526.896362,503.067139 510.547852,500.807831 
	C501.000092,499.488342 491.556793,496.963806 481.848145,497.316254 
	C472.116089,497.669525 464.746246,501.959381 460.830200,511.350433 
	C448.378479,541.210999 438.489899,571.948547 429.404175,602.960632 
	C429.055969,604.148987 428.239746,605.404724 429.211060,607.298584 
	C435.535614,604.910156 439.654602,599.972046 443.865295,595.117004 
	C455.064758,582.203491 467.226868,570.414124 482.653259,562.540161 
	C498.284668,554.561584 515.114319,551.834473 532.432922,551.543518 
	C541.250977,551.395325 550.075317,551.633850 558.896973,551.675110 
	C560.801331,551.684021 562.608582,551.853394 563.593323,553.802185 
	C564.407776,555.413879 563.652039,556.768250 562.613403,557.890686 
	C549.511353,572.049744 537.383362,587.221069 520.626465,597.539124 
	C506.593689,606.179810 491.197144,609.700684 474.947662,610.082825 
	C467.788544,610.251160 460.635986,609.905151 453.473419,609.523804 
	C443.834991,609.010559 434.446960,610.091125 427.135101,617.614258 
	C425.220978,619.583679 423.968811,621.779480 423.288696,624.464600 
	C417.198792,648.507690 411.675903,672.674011 407.271912,697.087585 
	C406.777863,699.826172 406.229095,702.879883 402.645508,702.311890 
	C398.891693,701.716858 399.615479,698.580750 400.153015,695.914673 
	C404.362793,675.035278 408.655853,654.173889 413.900330,633.097412 
M659.886963,205.454163 
	C656.001282,207.358185 652.048462,209.137482 648.241760,211.188095 
	C632.712524,219.553467 618.464355,229.532990 608.069031,244.141495 
	C599.178833,256.634918 593.734253,270.745697 589.223206,285.256012 
	C586.993469,292.428162 584.941467,299.655640 582.575073,307.648132 
	C609.896179,295.031219 637.121582,284.308594 653.446533,257.988556 
	C664.306519,240.479507 668.944946,220.860825 673.942139,200.527130 
	C668.480774,201.093414 664.652710,203.483765 659.886963,205.454163 
M432.469818,452.048798 
	C438.393311,458.970337 444.906097,465.262390 452.791901,471.649597 
	C455.480103,445.933716 457.419434,421.353149 447.173248,397.603577 
	C438.172821,376.741577 422.775238,360.905640 406.657379,344.523468 
	C405.353210,356.100372 405.189362,366.574188 405.260315,377.058899 
	C405.449463,405.011993 413.408569,430.167725 432.469818,452.048798 
M555.369141,396.059967 
	C572.617859,399.360321 589.890076,401.196350 607.271606,396.960754 
	C628.527954,391.780975 645.396606,379.382935 660.720276,364.457184 
	C661.375427,363.819031 662.339172,363.161469 661.913513,361.944336 
	C627.610840,348.901184 559.172791,366.349396 542.053345,392.730438 
	C546.000854,394.792419 550.388794,394.893341 555.369141,396.059967 
M354.652313,483.001556 
	C351.480377,534.977295 371.856201,566.451965 409.500732,588.610352 
	C410.340698,579.647949 409.129974,570.888916 408.506165,562.168213 
	C407.269714,544.883423 401.924133,528.948914 391.257294,515.021545 
	C381.659241,502.489685 369.334991,492.722107 357.938995,482.013062 
	C356.891785,481.028931 355.676544,480.333618 354.652313,483.001556 
M499.603455,252.470612 
	C493.506622,265.626495 487.909363,278.844299 486.043304,293.511383 
	C483.661835,312.229706 488.538727,329.117004 497.111359,345.331573 
	C501.115082,352.904388 505.563080,360.206970 511.313263,367.836029 
	C513.119873,361.282471 514.727661,355.724426 516.179565,350.125946 
	C519.187988,338.525879 522.304382,326.865143 522.492188,314.839722 
	C522.850586,291.891876 512.976562,271.904999 503.279083,251.937195 
	C502.153351,249.619217 501.071472,249.738083 499.603455,252.470612 
M546.794617,566.305359 
	C548.817871,563.954468 550.841125,561.603516 553.011780,559.081360 
	C517.209106,549.695862 459.994171,573.304993 446.574249,602.652466 
	C447.497528,603.524719 448.678436,603.605713 449.836182,603.605469 
	C459.311768,603.603577 468.797974,603.847290 478.260223,603.480652 
	C490.323334,603.013306 501.966003,600.568970 512.809753,594.876282 
	C526.028931,587.936707 536.286682,577.531311 546.794617,566.305359 
M533.443909,495.917450 
	C560.475220,495.937897 578.755188,480.036743 596.714905,462.003784 
	C562.087708,451.680817 504.867371,466.995880 487.752258,491.143982 
	C502.847168,493.337402 517.438538,496.378113 533.443909,495.917450 
z"/>
</svg>