<svg version="1.1" id="Layer_1" xmlns="http://www.w3.org/2000/svg" xmlns:xlink="http://www.w3.org/1999/xlink" x="0px" y="0px"
	 width="100%" viewBox="0 0 96 96" enable-background="new 0 0 96 96" xml:space="preserve">
<path fill="#000000" opacity="1.000000" stroke="none" 
	d="
M34.375000,97.000000 
	C34.882851,93.279785 35.592232,89.507355 36.692375,85.852547 
	C38.073318,81.264885 36.848434,78.141945 32.961666,75.143341 
	C25.957905,69.740005 24.083414,62.889755 26.707191,54.365936 
	C34.704536,59.353168 39.534821,65.773537 39.108765,75.555962 
	C39.847054,73.435165 40.440708,71.250000 41.350521,69.205536 
	C44.175224,62.858097 45.038525,57.386532 38.884129,51.774651 
	C33.979660,47.302521 33.370033,38.348877 35.662567,30.491360 
	C44.272564,35.528347 46.885433,43.392376 47.853580,52.634365 
	C49.771900,49.216747 51.683086,45.795101 53.610744,42.382759 
	C55.218021,39.537552 52.996784,37.613514 51.809364,35.591606 
	C47.833637,28.821854 47.504730,22.083582 51.478401,15.243161 
	C51.872444,14.564845 52.490402,14.016609 53.017784,13.392197 
	C57.934006,18.252584 59.272823,24.638821 57.653984,36.067509 
	C61.744072,31.222813 65.584106,27.170998 67.127678,21.306019 
	C69.509781,12.255031 76.279869,7.562831 84.747559,4.595201 
	C86.095627,12.727184 81.644249,21.498480 73.504448,25.109550 
	C67.329491,27.848955 63.601055,32.424080 59.869175,38.750294 
	C66.610542,33.931320 73.219872,32.412106 80.444359,33.659904 
	C81.599739,33.859459 82.881416,33.808590 83.368919,35.135323 
	C83.879753,36.525581 82.764488,37.239521 81.918365,38.016918 
	C77.445976,42.126057 72.315361,44.755566 66.106781,43.876869 
	C55.772110,42.414204 53.494530,43.912991 50.496620,55.807236 
	C57.440804,51.394321 64.367928,50.376259 72.469574,52.288494 
	C69.236488,57.716175 65.081444,60.501591 59.473015,61.026489 
	C57.338737,61.226238 55.079811,61.232025 53.010540,60.752705 
	C48.639294,59.740150 46.414822,61.589615 45.261009,65.586906 
	C44.210247,69.227180 42.992687,72.819313 41.521118,77.467133 
	C48.005623,69.853867 55.171616,67.076790 64.131142,69.459084 
	C62.025959,75.508881 55.051510,80.380936 48.741501,80.476807 
	C39.705425,80.614098 39.582802,80.737823 38.233452,89.783722 
	C37.914478,91.922104 37.462467,94.040627 37.035828,96.584145 
	C36.250000,97.000000 35.500000,97.000000 34.375000,97.000000 
M73.770676,22.113396 
	C78.556206,19.003090 81.405403,14.711191 82.534599,8.460526 
	C74.541603,11.101910 70.890602,16.300959 69.383835,23.431969 
	C71.135361,24.237867 72.059708,22.956482 73.770676,22.113396 
M37.889687,44.597504 
	C38.868515,47.551376 40.080601,50.343727 42.827511,52.241459 
	C45.647038,47.351845 42.958076,39.538387 37.511600,36.276901 
	C35.798550,38.860889 37.346870,41.368118 37.889687,44.597504 
M76.366104,35.660294 
	C71.325653,35.042736 67.167717,36.862244 62.909134,40.248165 
	C68.777184,42.963657 73.394775,41.188572 77.760399,38.307087 
	C79.632744,37.071270 78.696877,36.217300 76.366104,35.660294 
M28.091921,62.085888 
	C29.535988,68.995842 31.826368,72.081406 36.087765,72.857758 
	C34.992107,65.105492 33.052723,61.863876 28.045315,59.469593 
	C28.045315,60.144901 28.045315,60.798340 28.091921,62.085888 
M51.156059,24.676517 
	C51.153847,28.015266 51.739742,31.129124 54.727680,34.171532 
	C56.430325,28.293236 56.557617,23.317913 53.448917,18.353243 
	C51.634865,19.979124 51.423485,21.938442 51.156059,24.676517 
M52.658520,77.330437 
	C55.517796,76.166756 58.190720,74.775940 60.081593,71.800903 
	C53.131351,70.834671 49.193844,72.575638 47.086788,77.306252 
	C48.687866,78.011879 50.313324,77.677353 52.658520,77.330437 
M66.545578,54.687412 
	C61.700516,52.310432 57.976265,54.383347 53.477779,57.932903 
	C59.021614,59.105030 63.144810,58.891216 66.545578,54.687412 
z"/>
</svg>